<svg viewBox="0 0 48 48" xmlns="http://www.w3.org/2000/svg"><circle cx="23.5" cy="23.5" fill="#e1cd91" r="16.5"/><g stroke="#002346" stroke-miterlimit="10"><path d="m31.6 21.6-11.3-10.4c-.4-.4-.9-.3-1 0-1.5 6.5 3.6 11.1 3.6 11.1" fill="#002346" stroke-width=".1"/><path d="m40.6 19.4c-.6.5-1.1 1.3-1.5 2.3-.3.6-.5 1.4-.8 2.2-2.9 10.3-15.9 11.5-20.7 10.4-2.3-.5-4.9-1.2-7.2-.5-2.8.9-4.2 1.4-7 2.4-.6.3-1.6-.3.2-1.3 5.3-3.2 8.3-5 12-6.7 1.3-.6 3-1.5 4.1-2.4.4-.3.7-.6 1.1-1 3.1-3.6 12.5-13.1 18.1-8.2.6.5 1.2 1.1 1.9 1.4.3.2.7.3 1.1.3" fill="#fff" stroke-width="1.4"/><path d="m28 24.9-12.1-9.4c-.4-.3-.9-.3-1 .1-1 6.5 7 13.5 7 13.5" fill="#fff" stroke-width="1.4"/><path d="m38.2 16.6s2.2 1.2-.7 7.7c0 0 1.3-3.3 3.8-4.7s3.3-1.2 3.9-1.3 0 0 0 0c.3 0 .3-.6 0-.6s0 0 0 0c-.7 0-2.2.2-3.7 0s-2.5-.2-3.4-1.1z" fill="#002346" stroke-width=".2"/></g><circle cx="35.5" cy="19.5" fill="#002346" r="1"/></svg>